PathFileType	3	(X/Y/Z)	D:\Jess\Healthy\Labelled\HA21\20251027\SRRun01.trc
DataRate	CameraRate	NumFrames	NumMarkers	Units	OrigDataRate	OrigDataStartFrame	OrigNumFrames
250.0	250.0	4	33	mm	250.0	38500	4001
Frame#	Time	C7			T10			CLAV			LSHO			RSHO			LASIS			RASIS			LPSIS			RPSIS			LILCR			RILCR			LGTR			LTHI			LLTHI			LLEP			LPSH			LLSH			LDSH			LLMAL			LTOE			L5TH			LHEE			RGTR			RTHI			RLTHI			RLEP			RPSH			RLSH			RDSH			RLMAL			RTOE			R5TH			RHEE			
		X1	Y1	Z1	X2	Y2	Z2	X3	Y3	Z3	X4	Y4	Z4	X5	Y5	Z5	X6	Y6	Z6	X7	Y7	Z7	X8	Y8	Z8	X9	Y9	Z9	X10	Y10	Z10	X11	Y11	Z11	X12	Y12	Z12	X13	Y13	Z13	X14	Y14	Z14	X15	Y15	Z15	X16	Y16	Z16	X17	Y17	Z17	X18	Y18	Z18	X19	Y19	Z19	X20	Y20	Z20	X21	Y21	Z21	X22	Y22	Z22	X23	Y23	Z23	X24	Y24	Z24	X25	Y25	Z25	X26	Y26	Z26	X27	Y27	Z27	X28	Y28	Z28	X29	Y29	Z29	X30	Y30	Z30	X31	Y31	Z31	X32	Y32	Z32	X33	Y33	Z33	

2501	153.996	788.6330469896437	1485.442631838349	-891.9751976157277	792.4238733541075	1262.053396042662	-845.1690391834585	815.0520209937482	1420.59097741037	-1048.744512358169	641.8706964327951	1480.833937575866	-992.0005354461895	950.2848305978073	1475.03118533174	-975.1921156880886	674.7959997160061	977.6057871354925	-992.331429770431	912.1016000293639	976.6438734550395	-1012.639500792473	788.8320764812806	1032.529400229119	-819.4218083945724	820.8810039509897	1032.313714560048	-821.2329511060572	629.0679742923994	1059.313651278528	-947.61632416959	961.551788279257	1064.562363960727	-923.4480788061162	613.7556132647447	856.2150199369214	-897.8722838112468	685.2227781386059	686.1675079215398	-1008.169821202098	652.5697516616846	620.044254753821	-884.6435059468847	684.3062421037059	474.9736439038817	-870.2927576115786	741.5490895243458	379.2110411444326	-893.5263239795081	698.1543133908914	314.9894126990005	-777.1090497864867	766.7552162961249	231.284198491905	-789.2796628008439	746.7148284546943	139.679792274824	-669.1165493699549	761.4076451298259	57.18756509197294	-801.5959552048498	717.214599426367	42.90856706345319	-740.4109653634629	806.8177536025208	120.2825011127173	-582.1120333885741	991.6615212820873	855.0472891602005	-956.9328065446617	904.7442899106696	757.6734676160802	-1115.527753452571	968.9828573976439	625.0587538240717	-1053.398355559947	948.063181007292	541.6010802693635	-1079.697425434209	897.1154044927931	439.2202593210581	-1051.498965892979	957.074763252578	464.0445979401749	-937.4124982140795	901.322074009021	384.4531472073802	-886.8903926061669	928.8838685817128	379.7302462303695	-748.4191452292768	927.4668314543273	218.5201258287523	-760.1666925549491	965.1090112192433	252.9780021617163	-716.716258275527	870.935090353081	433.5229264140091	-691.0828046555648	
2502	154	788.3997743126761	1488.204648311391	-892.2021163298133	791.562704615644	1264.729249942562	-845.9086478650037	816.4834028755737	1423.731694788444	-1048.69045435377	642.7229296539678	1483.930480753848	-993.5478814668469	950.7691481493923	1478.047498965351	-973.63277823996	674.7206353601451	979.9940427664488	-993.530034728439	912.5810421732159	980.5522196760149	-1013.339471592728	788.0055789132537	1035.274730397839	-820.4316677733146	820.0471052953442	1035.188919422195	-822.1095036019059	628.9901544731522	1062.954014937963	-949.4379222838506	961.4071354580121	1067.769782021659	-923.2935008751257	613.7586746265555	858.5874703717481	-898.0067807986538	685.6798725078764	686.7449113833072	-1004.253286901587	652.6665086023112	623.0122692326928	-879.2269989021014	684.1020101037321	478.1114131937865	-861.6953906448114	741.0507788790096	381.8963964587727	-884.2441210655129	697.5941058116694	318.44105840208	-767.4874431308131	765.7889796755182	234.2447122426125	-779.6664321122563	745.6058117691766	142.6949045586403	-659.2603705306354	760.9442201916326	57.1925091054224	-789.7928935626614	716.8749411072681	43.34829154634072	-728.6090088133268	805.6501716163239	125.0872160135708	-572.340578647485	991.7437017571048	859.4667673845262	-958.056893237797	904.5813604781779	763.7107728874055	-1117.727643364433	968.688615377633	630.0890436313465	-1057.471530454276	947.6935490211047	546.2026099458481	-1084.488777143654	896.8353224229253	442.5916217870368	-1058.969259164255	956.8841183382165	463.6057181401653	-944.2020159092349	901.142134005482	382.3565776669836	-896.2593639612412	928.8840216416926	372.8377913177211	-757.9602223696511	926.7828679758723	212.0229887391335	-775.3522926354912	964.554222741029	244.7135793692949	-730.6219847714877	871.290227579545	424.815797834361	-698.6089379004583	
2503	154.004	788.2080008790713	1491.05266679734	-892.4277974126467	790.7096987177833	1267.465336543655	-846.6945798841944	817.9042000229216	1426.988842570375	-1048.621979360443	643.6104840104017	1487.152946849773	-995.0393251561643	951.2435071003767	1481.162254377439	-972.1155836521738	674.6461114897401	982.3975894079159	-994.8134344032509	912.9573449088679	984.5459758866911	-1014.131733614939	787.1555144478683	1038.105518378259	-821.5375723560343	819.1936515351845	1038.16010012031	-823.0795125950559	628.8833250068827	1066.624885269952	-951.4467893871648	961.2449668955828	1071.118948755186	-923.3131185614773	613.8008966605106	861.027114453302	-898.1683631733163	686.1868540674396	687.487275654827	-1000.433336695013	652.7880550809633	626.1590811554333	-873.9373753020296	683.9400950106208	481.5341395219319	-853.2306466251318	740.6073806617321	384.8874022126776	-875.1402931254579	697.0537937870547	322.1538192073875	-758.0473088921834	764.7952364968453	237.4245191157904	-770.3171909461701	744.4786402684565	145.8716704671607	-649.7331046713575	760.4608977684056	57.23284169316555	-778.1214630043576	716.5255277613943	43.90682292750635	-716.9449493773818	804.4371061568361	130.1840169900026	-562.9407640362624	991.7935796039804	864.0752784152644	-959.3489114861488	904.4267432271341	769.664038254768	-1119.887897672122	968.3659353723859	635.1284216986991	-1061.318212864565	947.3050492171554	550.773269596452	-1088.951491429207	896.5443363089545	445.9491399377041	-1066.198761195742	956.6561220508543	463.0459001670932	-950.8456363179041	900.9232503630859	380.1693536914874	-905.6219908132666	928.8121093238004	365.7542208796656	-767.6569889069616	926.0503269060192	205.5247790489262	-790.7585504357845	963.9287373475572	236.3874333100481	-744.7872759400517	871.5429723131128	415.803144926665	-706.3483745199876	
2504	154.008	788.0560954390287	1493.966760755713	-892.6522258935955	789.8657532845657	1270.244780569358	-847.5194892534184	819.3068574237288	1430.336092883868	-1048.536935099318	644.5302329717249	1490.477864551486	-996.4727053101357	951.7037384195022	1484.35035707046	-970.6503009825501	674.5753759887879	984.7927961134257	-996.1731898542894	913.2129045990566	988.5957741676708	-1015.009958142657	786.2904382490887	1041.010511085159	-822.7355403486055	818.328648543514	1041.215537345462	-824.1382255149908	628.7543816534276	1070.295453958083	-953.645118664238	961.072336091133	1074.601300786181	-923.4988849320741	613.8869497708926	863.525499423196	-898.3401479701935	686.7508332867269	688.3897091506095	-996.7230015555434	652.9281678779668	629.4673744982044	-868.7961917057438	683.8200628763221	485.2195929520887	-844.9301259227321	740.2213172140755	388.1635439599701	-866.2453656798208	696.5343386181983	326.1077780590275	-748.8178438962126	763.7748084402442	240.8069755719771	-761.2536492903009	743.3340072651883	149.2034065997215	-640.5536935101329	759.9561357400552	57.31108551315722	-766.6009026457838	716.1648940080726	44.59790712711368	-705.4375086918719	803.1781616722244	135.5655993277836	-553.9359197557228	991.8108200467684	868.8445624769053	-960.7956589913744	904.2772000464918	775.5068797363793	-1122.012380023367	968.0142492900585	640.1425469881738	-1064.936517603183	946.8967276351252	555.2797001145642	-1093.086249129916	896.243684425742	449.269912719392	-1073.183603846553	956.3936234191916	462.3505413454783	-957.3515984879552	900.6673970435724	377.8919063437754	-914.9815304960625	928.669911319752	358.4955091992479	-777.5252438472755	925.2808281147093	199.0519690824421	-806.3845897921623	963.2440738689608	228.0305612053554	-759.2198858142406	871.6930109782572	406.5041928293747	-714.3274717920846	
